<svg xmlns="http://www.w3.org/2000/svg" height="512pt" version="1.1" viewBox="0 0 512 512" width="512pt">
<g id="surface1">
<path d="M 512 256 C 512 397.386719 397.386719 512 256 512 C 114.613281 512 0 397.386719 0 256 C 0 114.613281 114.613281 0 256 0 C 397.386719 0 512 114.613281 512 256 Z M 512 256 " style=" stroke:none;fill-rule:nonzero;fill:rgb(100%,83.137255%,0%);fill-opacity:1;" />
<path d="M 90.121094 338.304688 L 263.691406 511.875 C 401.515625 507.808594 512 394.8125 512 256 C 512 248.410156 511.648438 240.90625 511.003906 233.484375 L 405.195312 127.679688 Z M 90.121094 338.304688 " style=" stroke:none;fill-rule:nonzero;fill:rgb(99.215686%,72.941176%,7.058824%);fill-opacity:1;" />
<path d="M 106.804688 127.679688 L 405.199219 127.679688 L 405.199219 311.753906 L 106.804688 311.753906 Z M 106.804688 127.679688 " style=" stroke:none;fill-rule:nonzero;fill:rgb(25.490196%,28.627451%,32.156863%);fill-opacity:1;" />
<path d="M 106.804688 127.679688 L 255.167969 127.679688 L 255.167969 311.753906 L 106.804688 311.753906 Z M 106.804688 127.679688 " style=" stroke:none;fill-rule:nonzero;fill:rgb(25.490196%,28.627451%,32.156863%);fill-opacity:1;" />
<path d="M 255.167969 127.679688 L 405.199219 127.679688 L 405.199219 311.753906 L 255.167969 311.753906 Z M 255.167969 127.679688 " style=" stroke:none;fill-rule:nonzero;fill:rgb(13.72549%,15.294118%,16.862745%);fill-opacity:1;" />
<path d="M 125.304688 147.652344 L 386.695312 147.652344 L 386.695312 308.902344 L 125.304688 308.902344 Z M 125.304688 147.652344 " style=" stroke:none;fill-rule:nonzero;fill:rgb(98.039216%,36.470588%,5.882353%);fill-opacity:1;" />
<path d="M 255.167969 147.652344 L 386.695312 147.652344 L 386.695312 308.902344 L 255.167969 308.902344 Z M 255.167969 147.652344 " style=" stroke:none;fill-rule:nonzero;fill:rgb(94.901961%,27.058824%,0%);fill-opacity:1;" />
<path d="M 400.257812 348.847656 L 111.742188 348.847656 C 96.578125 348.847656 84.28125 336.554688 84.28125 321.386719 L 84.28125 294.171875 L 427.714844 294.171875 L 427.714844 321.386719 C 427.71875 336.554688 415.421875 348.847656 400.257812 348.847656 Z M 400.257812 348.847656 " style=" stroke:none;fill-rule:nonzero;fill:rgb(13.72549%,15.294118%,16.862745%);fill-opacity:1;" />
<path d="M 255.167969 294.171875 L 255.167969 348.847656 L 400.257812 348.847656 C 415.421875 348.847656 427.71875 336.554688 427.71875 321.386719 L 427.71875 294.171875 Z M 255.167969 294.171875 " style=" stroke:none;fill-rule:nonzero;fill:rgb(13.72549%,15.294118%,16.862745%);fill-opacity:1;" />
<path d="M 256 97.8125 C 203.804688 97.8125 158.441406 127.027344 135.351562 169.996094 C 158.441406 212.964844 203.808594 242.179688 256 242.179688 C 308.191406 242.179688 353.558594 212.964844 376.648438 169.996094 C 353.558594 127.027344 308.195312 97.8125 256 97.8125 Z M 256 97.8125 " style=" stroke:none;fill-rule:nonzero;fill:rgb(100%,100%,100%);fill-opacity:1;" />
<path d="M 256 97.8125 C 255.722656 97.8125 255.445312 97.824219 255.167969 97.828125 L 255.167969 242.164062 C 255.445312 242.164062 255.722656 242.179688 256 242.179688 C 308.195312 242.179688 353.558594 212.964844 376.648438 169.996094 C 353.558594 127.027344 308.195312 97.8125 256 97.8125 Z M 256 97.8125 " style=" stroke:none;fill-rule:nonzero;fill:rgb(91.372549%,92.941176%,96.078431%);fill-opacity:1;" />
<path d="M 322.210938 169.996094 C 322.210938 206.5625 292.566406 236.207031 256 236.207031 C 219.433594 236.207031 189.789062 206.5625 189.789062 169.996094 C 189.789062 133.429688 219.433594 103.785156 256 103.785156 C 292.566406 103.785156 322.210938 133.429688 322.210938 169.996094 Z M 322.210938 169.996094 " style=" stroke:none;fill-rule:nonzero;fill:rgb(0%,92.941176%,100%);fill-opacity:1;" />
<path d="M 256 103.78125 C 255.722656 103.78125 255.445312 103.800781 255.167969 103.804688 L 255.167969 236.1875 C 255.445312 236.191406 255.722656 236.207031 256 236.207031 C 292.566406 236.207031 322.210938 206.5625 322.210938 169.996094 C 322.210938 133.429688 292.566406 103.78125 256 103.78125 Z M 256 103.78125 " style=" stroke:none;fill-rule:nonzero;fill:rgb(2.745098%,74.509804%,90.980392%);fill-opacity:1;" />
<path d="M 289.105469 169.996094 C 289.105469 188.28125 274.285156 203.101562 256 203.101562 C 237.714844 203.101562 222.894531 188.28125 222.894531 169.996094 C 222.894531 151.710938 237.714844 136.890625 256 136.890625 C 274.285156 136.890625 289.105469 151.710938 289.105469 169.996094 Z M 289.105469 169.996094 " style=" stroke:none;fill-rule:nonzero;fill:rgb(25.490196%,28.627451%,32.156863%);fill-opacity:1;" />
<path d="M 256 136.890625 C 255.722656 136.890625 255.445312 136.902344 255.167969 136.910156 L 255.167969 203.078125 C 255.445312 203.085938 255.722656 203.101562 256 203.101562 C 274.285156 203.101562 289.105469 188.277344 289.105469 169.996094 C 289.105469 151.710938 274.285156 136.890625 256 136.890625 Z M 256 136.890625 " style=" stroke:none;fill-rule:nonzero;fill:rgb(13.72549%,15.294118%,16.862745%);fill-opacity:1;" />
</g>
</svg>